<svg width="48" height="48" viewBox="0 0 48 48" fill="none" xmlns="http://www.w3.org/2000/svg">
<path d="M20.8118 6.64238L2.89642 37.6705C2.57281 38.2308 2.4024 38.8664 2.40234 39.5135C2.40228 40.1605 2.57257 40.7962 2.89608 41.3566C3.21959 41.917 3.68493 42.3823 4.24531 42.7058C4.80568 43.0294 5.44136 43.1996 6.08842 43.1996H41.9163C42.5633 43.1996 43.199 43.0294 43.7594 42.7058C44.3198 42.3823 44.7851 41.917 45.1086 41.3566C45.4321 40.7962 45.6024 40.1605 45.6023 39.5135C45.6023 38.8664 45.4319 38.2308 45.1083 37.6705L27.1948 6.64238C26.8714 6.08216 26.4061 5.61696 25.8459 5.29352C25.2857 4.97008 24.6502 4.7998 24.0033 4.7998C23.3564 4.7998 22.7209 4.97008 22.1607 5.29352C21.6005 5.61696 21.1352 6.08216 20.8118 6.64238Z" fill="#EE404C"/>
<path d="M24.2381 16.2119H23.7708C22.6202 16.2119 21.6875 17.1446 21.6875 18.2952V28.2529C21.6875 29.4035 22.6202 30.3362 23.7708 30.3362H24.2381C25.3887 30.3362 26.3214 29.4035 26.3214 28.2529V18.2952C26.3214 17.1446 25.3887 16.2119 24.2381 16.2119Z" fill="#FFF7ED"/>
<path d="M24.0044 38.2333C25.2841 38.2333 26.3214 37.196 26.3214 35.9164C26.3214 34.6368 25.2841 33.5994 24.0044 33.5994C22.7248 33.5994 21.6875 34.6368 21.6875 35.9164C21.6875 37.196 22.7248 38.2333 24.0044 38.2333Z" fill="#FFF7ED"/>
</svg>
