<svg width="24" height="24" viewBox="0 0 24 24" fill="none" xmlns="http://www.w3.org/2000/svg">
<path d="M17.5248 4.3828H16.8534V3.70312C16.8534 3.31479 16.5387 3 16.1506 3C15.7624 3 15.4477 3.31479 15.4477 3.70312V4.3828H8.55221V3.70312C8.55221 3.31479 8.23757 3 7.8494 3C7.46124 3 7.14659 3.31479 7.14659 3.70312V4.3828H6.47523C4.55898 4.3828 3 5.94247 3 7.85954V17.5232C3 19.4403 4.55898 21 6.47523 21H17.5248C19.441 21 21 19.4403 21 17.5232V7.85954C21 5.94247 19.441 4.3828 17.5248 4.3828ZM6.47523 5.78905H7.14659V7.16014C7.14659 7.54848 7.46124 7.86327 7.8494 7.86327C8.23757 7.86327 8.55221 7.54848 8.55221 7.16014V5.78905H15.4478V7.16014C15.4478 7.54848 15.7624 7.86327 16.1506 7.86327C16.5388 7.86327 16.8534 7.54848 16.8534 7.16014V5.78905H17.5248C18.666 5.78905 19.5944 6.71788 19.5944 7.85954V8.53124H4.40562V7.85954C4.40562 6.71788 5.33404 5.78905 6.47523 5.78905ZM17.5248 19.5938H6.47523C5.33404 19.5938 4.40562 18.6649 4.40562 17.5232V9.93749H19.5944V17.5232C19.5944 18.6649 18.666 19.5938 17.5248 19.5938ZM9.24333 12.7031C9.24333 13.0915 8.92868 13.4062 8.54051 13.4062H7.15833C6.77016 13.4062 6.45552 13.0915 6.45552 12.7031C6.45552 12.3148 6.77016 12 7.15833 12H8.54051C8.92864 12 9.24333 12.3148 9.24333 12.7031ZM17.5445 12.7031C17.5445 13.0915 17.2299 13.4062 16.8417 13.4062H15.4595C15.0714 13.4062 14.7567 13.0915 14.7567 12.7031C14.7567 12.3148 15.0714 12 15.4595 12H16.8417C17.2298 12 17.5445 12.3148 17.5445 12.7031ZM13.3899 12.7031C13.3899 13.0915 13.0753 13.4062 12.6871 13.4062H11.3049C10.9168 13.4062 10.6021 13.0915 10.6021 12.7031C10.6021 12.3148 10.9168 12 11.3049 12H12.6871C13.0752 12 13.3899 12.3148 13.3899 12.7031ZM9.24333 16.8516C9.24333 17.2399 8.92868 17.5547 8.54051 17.5547H7.15833C6.77016 17.5547 6.45552 17.2399 6.45552 16.8516C6.45552 16.4632 6.77016 16.1484 7.15833 16.1484H8.54051C8.92864 16.1484 9.24333 16.4632 9.24333 16.8516ZM17.5445 16.8516C17.5445 17.2399 17.2299 17.5547 16.8417 17.5547H15.4595C15.0714 17.5547 14.7567 17.2399 14.7567 16.8516C14.7567 16.4632 15.0714 16.1484 15.4595 16.1484H16.8417C17.2298 16.1484 17.5445 16.4632 17.5445 16.8516ZM13.3899 16.8516C13.3899 17.2399 13.0753 17.5547 12.6871 17.5547H11.3049C10.9168 17.5547 10.6021 17.2399 10.6021 16.8516C10.6021 16.4632 10.9168 16.1484 11.3049 16.1484H12.6871C13.0752 16.1484 13.3899 16.4632 13.3899 16.8516Z" fill="#999999"/>
</svg>
