<svg width="36" height="36" viewBox="0 0 36 36" fill="none" xmlns="http://www.w3.org/2000/svg">
<circle cx="18" cy="18" r="18" fill="#E83A3A"/>
<path d="M28.0598 22.4278L20.6415 8.79105C19.4496 6.78452 16.5442 6.78186 15.3507 8.79105L7.93278 22.4278C6.71437 24.4781 8.1895 27.0745 10.5776 27.0745H25.4144C27.8004 27.0745 29.2782 24.4802 28.0598 22.4278ZM17.9961 24.6135C17.3178 24.6135 16.7656 24.0614 16.7656 23.3831C16.7656 22.7047 17.3178 22.1526 17.9961 22.1526C18.6744 22.1526 19.2266 22.7047 19.2266 23.3831C19.2266 24.0614 18.6744 24.6135 17.9961 24.6135ZM19.2266 19.6917C19.2266 20.37 18.6744 20.9221 17.9961 20.9221C17.3178 20.9221 16.7656 20.37 16.7656 19.6917V13.5393C16.7656 12.861 17.3178 12.3088 17.9961 12.3088C18.6744 12.3088 19.2266 12.861 19.2266 13.5393V19.6917Z" fill="white"/>
</svg>
